<svg width="15" height="15" viewBox="0 0 15 15" fill="none" xmlns="http://www.w3.org/2000/svg">
<path d="M14.4416 10.5102L11.4975 9.0381C11.3593 8.96913 11.2029 8.94538 11.0505 8.97022C10.898 8.99505 10.7573 9.06721 10.6481 9.17648L9.41525 10.4093C7.64363 10.1245 4.85188 7.33346 4.56777 5.56184L5.80062 4.32899C5.90988 4.21984 5.98204 4.07907 6.00688 3.92664C6.03171 3.7742 6.00796 3.61781 5.93899 3.47962L4.46694 0.535507C4.41875 0.439002 4.34994 0.35427 4.26537 0.287305C4.18081 0.220341 4.08256 0.172782 3.97758 0.147994C3.8726 0.123206 3.76346 0.121795 3.65787 0.143862C3.55229 0.165928 3.45284 0.210932 3.36658 0.275689L0.422463 2.48377C0.331051 2.55233 0.256857 2.64123 0.205756 2.74343C0.154655 2.84563 0.128052 2.95833 0.128052 3.07259C0.128052 10.1164 4.86071 14.849 11.9045 14.849C12.0188 14.849 12.1315 14.8224 12.2337 14.7713C12.3359 14.7202 12.4248 14.646 12.4933 14.5546L14.7014 11.6105C14.7662 11.5243 14.8112 11.4248 14.8332 11.3192C14.8553 11.2136 14.8539 11.1045 14.8291 10.9995C14.8043 10.8945 14.7568 10.7963 14.6898 10.7117C14.6228 10.6272 14.5381 10.5583 14.4416 10.5102Z" fill="white"/>
<path d="M8.59302 1.60035C9.86139 1.60191 11.0774 2.10646 11.9742 3.00333C12.8711 3.9002 13.3756 5.11617 13.3772 6.38453C13.3772 6.57974 13.4547 6.76695 13.5928 6.90498C13.7308 7.04302 13.918 7.12056 14.1132 7.12056C14.3084 7.12056 14.4957 7.04302 14.6337 6.90498C14.7717 6.76695 14.8493 6.57974 14.8493 6.38453C14.8473 4.72587 14.1875 3.13571 13.0147 1.96286C11.8418 0.790007 10.2517 0.130244 8.59302 0.128296C8.39782 0.128296 8.2106 0.205841 8.07257 0.343873C7.93454 0.481905 7.85699 0.669117 7.85699 0.864324C7.85699 1.05953 7.93454 1.24674 8.07257 1.38477C8.2106 1.52281 8.39782 1.60035 8.59302 1.60035Z" fill="white"/>
<path d="M8.59302 4.54432C9.08104 4.54432 9.54907 4.73819 9.89415 5.08327C10.2392 5.42835 10.4331 5.89637 10.4331 6.38439C10.4331 6.5796 10.5106 6.76681 10.6487 6.90484C10.7867 7.04287 10.9739 7.12042 11.1691 7.12042C11.3643 7.12042 11.5515 7.04287 11.6896 6.90484C11.8276 6.76681 11.9051 6.5796 11.9051 6.38439C11.9051 5.50596 11.5562 4.66351 10.935 4.04236C10.3139 3.42122 9.47145 3.07227 8.59302 3.07227C8.39782 3.07227 8.2106 3.14981 8.07257 3.28784C7.93454 3.42588 7.85699 3.61309 7.85699 3.80829C7.85699 4.0035 7.93454 4.19071 8.07257 4.32874C8.2106 4.46678 8.39782 4.54432 8.59302 4.54432Z" fill="white"/>
</svg>
