<svg width="28" height="28" viewBox="0 0 28 28" fill="none" xmlns="http://www.w3.org/2000/svg">
<rect x="0.409668" y="0.622559" width="27.001" height="27.001" rx="13.5005" fill="#223071"/>
<path d="M13.9104 6.35596C9.63835 6.35596 6.14307 9.85124 6.14307 14.1233C6.14307 18.3953 9.63835 21.8906 13.9104 21.8906C18.1824 21.8906 21.6777 18.3953 21.6777 14.1233C21.6777 9.85124 18.1824 6.35596 13.9104 6.35596ZM19.2698 11.0163H17.0173C16.7843 10.0066 16.3959 9.15219 15.9299 8.22011C17.328 8.76382 18.5707 9.6959 19.2698 11.0163ZM13.9104 7.90942C14.5318 8.84149 15.0755 9.85124 15.3862 11.0163H12.4346C12.7453 9.92892 13.289 8.84149 13.9104 7.90942ZM7.92955 15.6767C7.7742 15.2107 7.69653 14.667 7.69653 14.1233C7.69653 13.5795 7.7742 13.0358 7.92955 12.5698H10.5704C10.4928 13.1135 10.4928 13.5795 10.4928 14.1233C10.4928 14.667 10.5704 15.133 10.5704 15.6767H7.92955ZM8.55093 17.2302H10.8034C11.0365 18.2399 11.4248 19.0943 11.8909 20.0264C10.4928 19.4827 9.24999 18.5506 8.55093 17.2302ZM10.8034 11.0163H8.55093C9.32766 9.6959 10.4928 8.76382 11.8909 8.22011C11.4248 9.15219 11.0365 10.0066 10.8034 11.0163ZM13.9104 20.3371C13.289 19.405 12.7453 18.3953 12.4346 17.2302H15.3862C15.0755 18.3176 14.5318 19.405 13.9104 20.3371ZM15.6968 15.6767H12.1239C12.0462 15.133 11.9685 14.667 11.9685 14.1233C11.9685 13.5795 12.0462 13.1135 12.1239 12.5698H15.7745C15.8522 13.1135 15.9299 13.5795 15.9299 14.1233C15.9299 14.667 15.7745 15.133 15.6968 15.6767ZM15.9299 20.0264C16.3959 19.172 16.7843 18.24 17.0173 17.2302H19.2698C18.5707 18.5506 17.328 19.4827 15.9299 20.0264ZM17.328 15.6767C17.4057 15.133 17.4057 14.667 17.4057 14.1233C17.4057 13.5795 17.328 13.1135 17.328 12.5698H19.9689C20.1242 13.0358 20.2019 13.5795 20.2019 14.1233C20.2019 14.667 20.1242 15.2107 19.9689 15.6767H17.328Z" fill="white"/>
</svg>
