<svg width="59" height="11" viewBox="0 0 59 11" fill="none" xmlns="http://www.w3.org/2000/svg">
<mask id="mask0_320_695" style="mask-type:alpha" maskUnits="userSpaceOnUse" x="0" y="0" width="59" height="11">
<path d="M58.1025 0.73877H0.605682V10.3202H58.1025V0.73877Z" fill="#C4C4C4"/>
</mask>
<g mask="url(#mask0_320_695)">
<path d="M305.424 310.779L-49.6102 -44.2556" stroke="#ADADAD"/>
<path d="M373.298 242.905L18.2636 -112.129" stroke="#ADADAD"/>
<path d="M300.203 315.999L-54.8305 -39.0348" stroke="#ADADAD"/>
<path d="M368.077 248.125L13.0434 -106.909" stroke="#ADADAD"/>
<path d="M294.981 321.221L-60.0524 -33.8131" stroke="#ADADAD"/>
<path d="M362.855 253.346L7.82187 -101.688" stroke="#ADADAD"/>
<path d="M289.761 326.442L-65.2734 -28.5922" stroke="#ADADAD"/>
<path d="M357.635 258.568L2.60079 -96.4663" stroke="#ADADAD"/>
<path d="M284.539 331.663L-70.4953 -23.3707" stroke="#ADADAD"/>
<path d="M352.413 263.789L-2.62112 -91.2446" stroke="#ADADAD"/>
<path d="M279.318 336.884L-75.7153 -18.1499" stroke="#ADADAD"/>
<path d="M347.192 269.01L-7.84141 -86.024" stroke="#ADADAD"/>
<path d="M409.846 206.357L54.812 -148.677" stroke="#ADADAD"/>
<path d="M274.097 342.104L-80.9363 -12.9293" stroke="#ADADAD"/>
<path d="M341.972 274.231L-13.0625 -80.8031" stroke="#ADADAD"/>
<path d="M404.624 211.578L49.5898 -143.456" stroke="#ADADAD"/>
<path d="M268.876 347.326L-86.1582 -7.70782" stroke="#ADADAD"/>
<path d="M336.75 279.452L-18.2843 -75.5818" stroke="#ADADAD"/>
<path d="M399.403 216.799L44.3693 -138.235" stroke="#ADADAD"/>
<path d="M263.655 352.547L-91.3789 -2.48688" stroke="#ADADAD"/>
<path d="M331.529 284.673L-23.5043 -70.3608" stroke="#ADADAD"/>
<path d="M394.183 222.02L39.1492 -133.015" stroke="#ADADAD"/>
<path d="M258.433 357.769L-96.6004 2.73499" stroke="#ADADAD"/>
<path d="M326.307 289.894L-28.7261 -65.1391" stroke="#ADADAD"/>
<path d="M388.961 227.241L33.9271 -127.793" stroke="#ADADAD"/>
<path d="M253.213 362.989L-101.822 7.95538" stroke="#ADADAD"/>
<path d="M321.087 295.115L-33.9473 -59.9186" stroke="#ADADAD"/>
<path d="M383.74 232.462L28.7061 -122.572" stroke="#ADADAD"/>
<path d="M315.866 300.337L-39.1676 -54.6976" stroke="#ADADAD"/>
<path d="M378.518 237.684L23.484 -117.351" stroke="#ADADAD"/>
<path d="M310.644 305.558L-44.3895 -49.4767" stroke="#ADADAD"/>
</g>
</svg>
