<svg width="260" height="16" viewBox="0 0 260 16" fill="none" xmlns="http://www.w3.org/2000/svg">
<mask id="mask0_304_9" style="mask-type:alpha" maskUnits="userSpaceOnUse" x="0" y="0" width="260" height="16">
<path d="M259.912 0.828369H0.0883484V15.0358H259.912V0.828369Z" fill="#C4C4C4"/>
</mask>
<g mask="url(#mask0_304_9)">
<path d="M440.655 175.12L85.6208 -179.914" stroke="#ADADAD"/>
<path d="M304.907 310.868L-50.1275 -44.166" stroke="#ADADAD"/>
<path d="M372.78 242.994L17.7462 -112.04" stroke="#ADADAD"/>
<path d="M435.433 180.34L80.4 -174.693" stroke="#ADADAD"/>
<path d="M299.686 316.089L-55.3478 -38.9453" stroke="#ADADAD"/>
<path d="M367.56 248.214L12.5261 -106.82" stroke="#ADADAD"/>
<path d="M430.212 185.562L75.1776 -169.472" stroke="#ADADAD"/>
<path d="M294.464 321.31L-60.5697 -33.7236" stroke="#ADADAD"/>
<path d="M362.338 253.436L7.30453 -101.598" stroke="#ADADAD"/>
<path d="M424.992 190.783L69.9579 -164.251" stroke="#ADADAD"/>
<path d="M289.243 326.531L-65.7908 -28.5027" stroke="#ADADAD"/>
<path d="M357.118 258.657L2.08346 -96.3767" stroke="#ADADAD"/>
<path d="M419.769 196.005L64.7357 -159.03" stroke="#ADADAD"/>
<path d="M284.021 331.753L-71.0127 -23.2811" stroke="#ADADAD"/>
<path d="M351.895 263.879L-3.13846 -91.155" stroke="#ADADAD"/>
<path d="M414.549 201.225L59.5155 -153.808" stroke="#ADADAD"/>
<path d="M278.801 336.974L-76.2326 -18.0603" stroke="#ADADAD"/>
<path d="M346.675 269.099L-8.35874 -85.9344" stroke="#ADADAD"/>
<path d="M409.329 206.446L54.2947 -148.587" stroke="#ADADAD"/>
<path d="M273.58 342.194L-81.4537 -12.8398" stroke="#ADADAD"/>
<path d="M341.454 274.32L-13.5798 -80.7135" stroke="#ADADAD"/>
<path d="M404.107 211.667L49.0725 -143.366" stroke="#ADADAD"/>
<path d="M268.359 347.416L-86.6756 -7.61829" stroke="#ADADAD"/>
<path d="M336.232 279.541L-18.8016 -75.4922" stroke="#ADADAD"/>
<path d="M398.885 216.889L43.852 -138.145" stroke="#ADADAD"/>
<path d="M263.138 352.636L-91.8963 -2.39734" stroke="#ADADAD"/>
<path d="M331.012 284.762L-24.0216 -70.2712" stroke="#ADADAD"/>
<path d="M393.666 222.109L38.6318 -132.925" stroke="#ADADAD"/>
<path d="M257.916 357.858L-97.1178 2.82446" stroke="#ADADAD"/>
<path d="M325.79 289.984L-29.2435 -65.0496" stroke="#ADADAD"/>
<path d="M388.444 227.331L33.4098 -127.703" stroke="#ADADAD"/>
<path d="M252.695 363.079L-102.339 8.04492" stroke="#ADADAD"/>
<path d="M320.569 295.205L-34.4646 -59.829" stroke="#ADADAD"/>
<path d="M383.222 232.552L28.1888 -122.482" stroke="#ADADAD"/>
<path d="M247.474 368.3L-107.56 13.2659" stroke="#ADADAD"/>
<path d="M315.349 300.426L-39.6849 -54.608" stroke="#ADADAD"/>
<path d="M378.001 237.773L22.9666 -117.261" stroke="#ADADAD"/>
<path d="M310.127 305.647L-44.9068 -49.3872" stroke="#ADADAD"/>
</g>
</svg>
