<svg width="123" height="55" viewBox="0 0 123 55" fill="none" xmlns="http://www.w3.org/2000/svg">
<circle cx="96.2069" cy="47.6918" r="5.80542" fill="white" stroke="#AE2A26" stroke-width="2"/>
<circle cx="112.518" cy="47.6918" r="5.80542" fill="white" stroke="#AE2A26" stroke-width="2"/>
<rect x="86.7902" y="6.35071" width="35.1448" height="35.757" fill="white" stroke="#AE2A26" stroke-width="2"/>
<path d="M94.0167 11.7401V31.7451" stroke="#AE2A26" stroke-width="2"/>
<path d="M100.914 11.7401V31.7451" stroke="#AE2A26" stroke-width="2"/>
<path d="M107.811 11.7401V31.7451" stroke="#AE2A26" stroke-width="2"/>
<path d="M114.708 11.7401V31.7451" stroke="#AE2A26" stroke-width="2"/>
<path d="M82.0763 36.4393H122.472" stroke="#AE2A26" stroke-width="2"/>
<circle cx="10.4696" cy="47.6919" r="5.80542" fill="white" stroke="#AE2A26" stroke-width="2"/>
<circle cx="56.7052" cy="47.6919" r="5.80542" fill="white" stroke="#AE2A26" stroke-width="2"/>
<circle cx="26.7806" cy="47.6919" r="5.80542" fill="white" stroke="#AE2A26" stroke-width="2"/>
<circle cx="73.0162" cy="47.6919" r="5.80542" fill="white" stroke="#AE2A26" stroke-width="2"/>
<path d="M96.2645 47.5232H112.304" stroke="#AE2A26" stroke-width="2"/>
<path d="M10.5272 47.5232H26.5672" stroke="#AE2A26" stroke-width="2"/>
<path d="M56.7628 47.5232H72.8028" stroke="#AE2A26" stroke-width="2"/>
<rect x="1.94128" y="6.35071" width="79.5979" height="35.757" fill="white" stroke="#AE2A26" stroke-width="2"/>
<path d="M7.25427 11.7401V31.7451" stroke="#AE2A26" stroke-width="2"/>
<path d="M14.1515 11.7401V31.7451" stroke="#AE2A26" stroke-width="2"/>
<path d="M21.0487 11.7401V31.7451" stroke="#AE2A26" stroke-width="2"/>
<path d="M27.9459 11.7401V31.7451" stroke="#AE2A26" stroke-width="2"/>
<path d="M34.8431 11.7401V31.7451" stroke="#AE2A26" stroke-width="2"/>
<path d="M41.7404 11.7401V31.7451" stroke="#AE2A26" stroke-width="2"/>
<path d="M48.6376 11.7401V31.7451" stroke="#AE2A26" stroke-width="2"/>
<path d="M55.5348 11.7401V31.7451" stroke="#AE2A26" stroke-width="2"/>
<path d="M62.432 11.7401V31.7451" stroke="#AE2A26" stroke-width="2"/>
<path d="M69.3292 11.7401V31.7451" stroke="#AE2A26" stroke-width="2"/>
<path d="M76.2264 11.7401V31.7451" stroke="#AE2A26" stroke-width="2"/>
<path d="M1.6781 36.4395H82.0763" stroke="#AE2A26" stroke-width="2"/>
<rect x="30.9877" y="1.84595" width="21.5054" height="4.4472" fill="white" stroke="#AE2A26" stroke-width="2"/>
</svg>
