<svg width="130" height="83" viewBox="0 0 130 83" fill="none" xmlns="http://www.w3.org/2000/svg">
<path d="M129.654 81.1326H0.470459" stroke="#AE2A26" stroke-width="2"/>
<path d="M119.687 10.4762L117.352 16.3156H109.615M119.687 10.4762L106.695 1.86316M119.687 10.4762H106.695M44.3596 10.4762H42.1699L45.3815 16.3156H98.3737M44.3596 10.4762L100.564 1.86316M44.3596 10.4762H100.564M100.564 1.86316H106.695M100.564 1.86316V10.4762M106.695 1.86316V10.4762M100.564 10.4762H106.695M98.3737 16.3156H108.301M98.3737 16.3156V24.0528M98.3737 73.8334H109.615M98.3737 73.8334L109.615 65.5123M98.3737 73.8334V64.6364M98.3737 73.8334H88.5928M109.615 16.3156H108.301M109.615 16.3156V31.7899M109.615 73.8334V65.5123M109.615 73.8334H114.14M108.301 16.3156L98.3737 24.0528M98.3737 24.0528L109.615 31.7899M98.3737 24.0528V41.5709M109.615 31.7899L98.3737 41.5709M109.615 31.7899V49.1621M98.3737 41.5709L109.615 49.1621M98.3737 41.5709V57.7021M109.615 49.1621L98.3737 57.7021M109.615 49.1621V65.5123M98.3737 57.7021L109.615 65.5123M98.3737 57.7021V64.6364M109.615 65.5123L114.14 73.8334M98.3737 64.6364L88.5928 73.8334M88.5928 73.8334H84.5052L81.4396 81.1326H121.001L117.352 73.8334H114.14" stroke="#AE2A26" stroke-width="2"/>
<rect x="7.08618" y="44.644" width="49.2359" height="27.8488" fill="white" stroke="#AE2A26" stroke-width="2"/>
<path d="M12.5896 48.6951V64.51" stroke="#AE2A26" stroke-width="2"/>
<path d="M18.0422 48.6951V64.51" stroke="#AE2A26" stroke-width="2"/>
<path d="M23.4949 48.6951V64.51" stroke="#AE2A26" stroke-width="2"/>
<path d="M28.9778 48.6951V64.51" stroke="#AE2A26" stroke-width="2"/>
<path d="M34.4607 48.6951V64.51" stroke="#AE2A26" stroke-width="2"/>
<path d="M39.9436 48.6951V64.51" stroke="#AE2A26" stroke-width="2"/>
<path d="M45.4265 48.6951V64.51" stroke="#AE2A26" stroke-width="2"/>
<path d="M28.9473 48.6951V64.51" stroke="#AE2A26" stroke-width="2"/>
<path d="M34.4302 48.6951V64.51" stroke="#AE2A26" stroke-width="2"/>
<path d="M39.9131 48.6951V64.51" stroke="#AE2A26" stroke-width="2"/>
<path d="M45.396 48.6951V64.51" stroke="#AE2A26" stroke-width="2"/>
<path d="M50.8789 48.6951V64.51" stroke="#AE2A26" stroke-width="2"/>
<path d="M3.15015 68.2211H60.0881" stroke="#AE2A26" stroke-width="2"/>
<circle cx="19.3717" cy="77.1167" r="4.38002" fill="white" stroke="#AE2A26" stroke-width="2"/>
<circle cx="44.0365" cy="77.1167" r="4.38002" fill="white" stroke="#AE2A26" stroke-width="2"/>
<path d="M20.3796 76.9833H44.0365" stroke="#AE2A26" stroke-width="2"/>
<path d="M61.2747 16.2841V19.5096" stroke="#AE2A26" stroke-width="2"/>
<circle cx="61.2747" cy="23.3801" r="3.51562" fill="white" stroke="#AE2A26" stroke-width="2"/>
</svg>
