<svg width="86" height="54" viewBox="0 0 86 54" fill="none" xmlns="http://www.w3.org/2000/svg">
<rect x="1.16479" y="32.3625" width="82.9626" height="7.04814" fill="white" stroke="#AE2A26" stroke-width="2"/>
<rect x="5.5459" y="4.36359" width="30.8283" height="35.0471" fill="white" stroke="#AE2A26" stroke-width="2"/>
<rect x="49.1715" y="4.36359" width="30.8283" height="35.0471" fill="white" stroke="#AE2A26" stroke-width="2"/>
<path d="M0.164795 32.5442H85.1273" stroke="#AE2A26" stroke-width="2"/>
<path d="M6.13354 11.6823H36.2139" stroke="#AE2A26" stroke-width="2"/>
<path d="M49.5453 11.6823H79.6257" stroke="#AE2A26" stroke-width="2"/>
<path d="M6.13354 18.6363H36.2139" stroke="#AE2A26" stroke-width="2"/>
<path d="M49.5453 18.6363H79.6257" stroke="#AE2A26" stroke-width="2"/>
<path d="M6.13354 25.5902H36.2139" stroke="#AE2A26" stroke-width="2"/>
<path d="M49.5453 25.5902H79.6257" stroke="#AE2A26" stroke-width="2"/>
<circle cx="11.9286" cy="45.8183" r="6.38274" fill="white" stroke="#AE2A26" stroke-width="2"/>
<circle cx="56.8107" cy="45.8183" r="6.38274" fill="white" stroke="#AE2A26" stroke-width="2"/>
<circle cx="28.7352" cy="45.8182" r="6.38274" fill="white" stroke="#AE2A26" stroke-width="2"/>
<circle cx="73.6172" cy="45.8182" r="6.38274" fill="white" stroke="#AE2A26" stroke-width="2"/>
<path d="M14.3174 45.6353H26.4937" stroke="#AE2A26" stroke-width="2"/>
<path d="M59.1995 45.6353H71.3758" stroke="#AE2A26" stroke-width="2"/>
<rect x="12.3169" y="1.19183" width="5.87811" height="38.2189" fill="white" stroke="#AE2A26" stroke-width="2"/>
<rect x="55.7906" y="1.19183" width="5.87811" height="38.2189" fill="white" stroke="#AE2A26" stroke-width="2"/>
<rect x="24.0289" y="1.19183" width="5.87811" height="38.2189" fill="white" stroke="#AE2A26" stroke-width="2"/>
<rect x="67.5023" y="1.19183" width="5.87811" height="38.2189" fill="white" stroke="#AE2A26" stroke-width="2"/>
<path d="M29.6638 39.4107H1.16479V32.3625H84.1274V39.4107H57.3956H56.9814L56.6885 39.7036L51.0126 45.3795H43.5297H36.0468L30.371 39.7036L30.0781 39.4107H29.6638Z" fill="white" stroke="#AE2A26" stroke-width="2"/>
</svg>
