<svg width="83" height="69" viewBox="0 0 83 69" fill="none" xmlns="http://www.w3.org/2000/svg">
<rect x="4.87231" y="20.3502" width="35.1448" height="35.757" fill="white" stroke="#AE2A26" stroke-width="2"/>
<path d="M12.0989 25.7396V45.7446" stroke="#AE2A26" stroke-width="2"/>
<path d="M18.9961 25.7396V45.7446" stroke="#AE2A26" stroke-width="2"/>
<path d="M25.8933 25.7396V45.7446" stroke="#AE2A26" stroke-width="2"/>
<path d="M32.7905 25.7396V45.7446" stroke="#AE2A26" stroke-width="2"/>
<path d="M0.158447 50.4388H40.5543" stroke="#AE2A26" stroke-width="2"/>
<circle cx="14.2891" cy="61.6913" r="5.80542" fill="white" stroke="#AE2A26" stroke-width="2"/>
<circle cx="30.6003" cy="61.6913" r="5.80542" fill="white" stroke="#AE2A26" stroke-width="2"/>
<path d="M14.3467 61.5226H30.3866" stroke="#AE2A26" stroke-width="2"/>
<circle cx="55.8217" cy="61.6913" r="5.80542" fill="white" stroke="#AE2A26" stroke-width="2"/>
<circle cx="72.1329" cy="61.6913" r="5.80542" fill="white" stroke="#AE2A26" stroke-width="2"/>
<path d="M55.8793 61.5226H71.9192" stroke="#AE2A26" stroke-width="2"/>
<rect x="53.2246" y="10.3433" width="21.5054" height="4.4472" fill="white" stroke="#AE2A26" stroke-width="2"/>
<path d="M61.9069 1.67139L56.9016 6.67666L60.4193 10.1944H67.5352L71.053 6.67666L66.0477 1.67139" stroke="#AE2A26" stroke-width="2"/>
<rect x="46.4049" y="14.777" width="35.1448" height="35.757" fill="white" stroke="#AE2A26" stroke-width="2"/>
<path d="M54.6029 44.8656H82.087" stroke="#AE2A26" stroke-width="2"/>
<path d="M53.6315 20.1664V40.1713" stroke="#AE2A26" stroke-width="2"/>
<path d="M60.5287 20.1664V40.1713" stroke="#AE2A26" stroke-width="2"/>
<path d="M67.4259 20.1664V40.1713" stroke="#AE2A26" stroke-width="2"/>
<path d="M74.3231 20.1664V40.1713" stroke="#AE2A26" stroke-width="2"/>
</svg>
